<svg width="192" height="29" viewBox="0 0 192 29" fill="none" xmlns="http://www.w3.org/2000/svg">
<g clip-path="url(#clip0_671_1461)">
<path d="M42.9449 1.11444C49.3692 -1.9582 50.6261 2.04554 50.4516 4.43149C49.5787 4.0823 49.4041 4.18208 48.3567 2.68564C47.1347 0.939795 45.5635 0.76524 44.3415 1.11444C46.611 1.11444 47.1347 2.33648 47.6584 3.38397C48.0774 4.22196 49.3459 4.89701 49.9278 5.12979C47.3092 5.82809 46.0872 4.78063 45.3889 3.90772C44.6907 3.03481 44.1669 2.1619 43.8178 1.81273C43.5977 1.59264 43.2941 1.63815 42.9449 1.11444Z" fill="#006F46"/>
<path d="M38.5806 27.3017V10.0181H42.9449V12.4623C44.9001 9.66895 47.3674 9.66895 48.3567 10.0181C48.2403 10.4837 48.0075 11.9036 48.0075 13.8589C44.2368 13.7192 43.1195 16.1284 43.1195 18.0489V27.3017H38.5806Z" fill="#006F46"/>
<path d="M0 27.1271V1.289H4.88804V12.4622C5.23719 12.2876 7.15749 8.79602 11.6964 9.84351C15.7116 10.7701 16.4098 15.0809 16.4098 17.1759V27.1271H11.6964V17.1759C11.6964 11.0656 4.88804 13.1606 4.88804 17.1759V27.1271H0Z" fill="#006F46"/>
<path d="M52.5464 1.81272C51.499 6.52643 47.4838 6.8756 47.4838 6.8756V8.796C51.6736 9.31974 51.8481 8.44683 52.5464 6.8756C52.6861 9.24991 51.2662 9.61071 50.4516 9.49432C50.4516 13.4515 50.1897 22.588 50.4516 23.81C50.9753 26.2542 52.721 27.4763 54.8159 27.8254C56.4918 28.1048 58.9474 26.6033 60.0531 25.905C60.0531 25.7304 59.9134 25.5559 59.3548 24.1592C56.003 26.1145 54.9905 23.2863 54.8159 22.2388C54.6413 21.1913 54.8159 8.796 54.8159 8.796H56.5616V6.8756H54.8159C54.8741 5.12978 54.9555 1.60323 54.8159 1.46356C54.6413 1.28898 52.8956 0.939813 52.5464 1.81272Z" fill="#006F46"/>
<path d="M62.1479 1.81272C61.1005 6.52643 57.6091 6.8756 57.0853 6.8756V8.796C61.2751 9.31974 61.4496 8.44683 62.1479 6.8756C62.2876 9.24991 60.8677 9.61071 60.0531 9.49432C60.0531 13.4515 59.7912 22.588 60.0531 23.81C60.5768 26.2542 62.2958 27.3798 64.4174 27.4763C66.2954 27.5616 67.4562 27.1058 68.4326 26.4288C69.453 25.7212 70.0466 24.9677 70.3529 24.5084C70.702 23.9846 70.5274 23.2863 70.0037 23.2863C69.51 23.2863 68.0834 25.0321 65.7834 24.6829C65.0344 24.4953 64.4718 23.816 64.4174 22.2388C64.2428 17.1759 64.4174 8.796 64.4174 8.796H69.8291C69.8291 8.796 70.702 8.62141 70.702 7.92309C70.702 6.98294 69.8291 6.8756 69.8291 6.8756H64.4174C64.4756 5.12978 64.5571 1.60323 64.4174 1.46356C64.2428 1.28898 62.4971 0.939813 62.1479 1.81272Z" fill="#006F46"/>
<path d="M72.4477 27.3017V11.4147H76.2884C76.428 11.4147 76.6957 11.0656 76.8121 10.891C76.9285 10.7164 76.8121 27.3017 76.8121 27.3017H72.4477Z" fill="#006F46"/>
<path d="M73.6698 8.79602C73.3904 8.79602 72.7387 9.95989 72.4477 10.5418H75.9392C76.3582 10.5418 77.0448 9.37795 77.3358 8.79602H73.6698Z" fill="#006F46"/>
<path fill-rule="evenodd" clip-rule="evenodd" d="M27.4079 28C32.6143 28 36.8349 23.9942 36.8349 18.8353C36.8349 13.6764 32.6143 9.49432 27.4079 9.49432C22.2016 9.49432 17.981 13.6764 17.981 18.8353C17.981 23.9942 22.2016 28 27.4079 28ZM27.4079 24.1592C30.1075 24.1592 32.296 21.8162 32.296 18.7987C32.296 15.7813 30.1075 13.3351 27.4079 13.3351C24.7084 13.3351 22.5199 15.7813 22.5199 18.7987C22.5199 21.8162 24.7084 24.1592 27.4079 24.1592Z" fill="#006F46"/>
</g>
<path d="M93.4414 28.1992H91.918V9.68359H93.4414V28.1992ZM108.188 24.2441C106.163 24.2441 104.545 23.5801 103.334 22.252C102.13 20.9173 101.527 19.1139 101.527 16.8418C101.527 14.5697 102.13 12.7695 103.334 11.4414C104.545 10.1068 106.163 9.43945 108.188 9.43945C109.743 9.43945 111.068 9.85938 112.162 10.6992C113.256 11.5391 113.871 12.6458 114.008 14.0195H112.055C111.977 13.1146 111.583 12.3952 110.873 11.8613C110.17 11.3275 109.281 11.0605 108.207 11.0605C106.755 11.0605 105.606 11.5618 104.76 12.5645C103.913 13.5605 103.49 14.9863 103.49 16.8418C103.49 18.6908 103.91 20.1165 104.75 21.1191C105.59 22.1217 106.729 22.623 108.168 22.623C109.288 22.623 110.193 22.3496 110.883 21.8027C111.573 21.2559 111.964 20.4746 112.055 19.459H114.008C113.871 20.9824 113.272 22.1608 112.211 22.9941C111.15 23.8275 109.809 24.2441 108.188 24.2441ZM116.645 9.68359H121.986C123.158 9.68359 124.138 9.79427 124.926 10.0156C125.72 10.2305 126.348 10.7025 126.811 11.4316C127.273 12.1543 127.504 12.9648 127.504 13.8633C127.504 15.3086 127.045 16.4056 126.127 17.1543C125.209 17.903 123.881 18.2773 122.143 18.2773H118.539V24H116.645V9.68359ZM118.539 16.5781H122.162C123.38 16.5781 124.245 16.3503 124.76 15.8945C125.281 15.4388 125.541 14.7812 125.541 13.9219C125.541 13.349 125.398 12.8411 125.111 12.3984C124.825 11.9557 124.46 11.6758 124.018 11.5586C123.581 11.4414 122.95 11.3828 122.123 11.3828H118.539V16.5781ZM134.398 19.7031H129.027V17.9355H134.398V19.7031ZM136.645 9.68359H141.986C143.158 9.68359 144.138 9.79427 144.926 10.0156C145.72 10.2305 146.348 10.7025 146.811 11.4316C147.273 12.1543 147.504 12.9648 147.504 13.8633C147.504 15.3086 147.045 16.4056 146.127 17.1543C145.209 17.903 143.881 18.2773 142.143 18.2773H138.539V24H136.645V9.68359ZM138.539 16.5781H142.162C143.38 16.5781 144.245 16.3503 144.76 15.8945C145.281 15.4388 145.541 14.7812 145.541 13.9219C145.541 13.349 145.398 12.8411 145.111 12.3984C144.825 11.9557 144.46 11.6758 144.018 11.5586C143.581 11.4414 142.95 11.3828 142.123 11.3828H138.539V16.5781ZM151.586 24H149.74V9.68359H151.586V24ZM160.873 21.2754V18.9805H159.613C156.944 18.9805 155.609 19.7064 155.609 21.1582C155.609 21.6855 155.805 22.0924 156.195 22.3789C156.586 22.6589 157.113 22.7988 157.777 22.7988C158.383 22.7988 158.969 22.6621 159.535 22.3887C160.102 22.1152 160.548 21.7441 160.873 21.2754ZM160.873 22.9355C159.936 23.8079 158.728 24.2441 157.25 24.2441C156.221 24.2441 155.375 23.9674 154.711 23.4141C154.047 22.8542 153.715 22.1348 153.715 21.2559C153.715 18.834 155.801 17.623 159.975 17.623H160.873C160.873 16.8809 160.834 16.3438 160.756 16.0117C160.678 15.6732 160.46 15.3932 160.102 15.1719C159.743 14.9505 159.174 14.8398 158.393 14.8398C156.752 14.8398 155.906 15.4258 155.854 16.5977H154.018C154.154 14.4688 155.645 13.4043 158.49 13.4043C159.818 13.4043 160.854 13.668 161.596 14.1953C162.338 14.7227 162.709 15.7578 162.709 17.3008V24H160.873V22.9355ZM167.289 14.957C168.207 13.9219 169.239 13.4043 170.385 13.4043C172.722 13.4043 173.891 14.6771 173.891 17.2227V24H172.045V17.3008C172.045 16.4544 171.892 15.8457 171.586 15.4746C171.286 15.1035 170.792 14.918 170.102 14.918C169.164 14.918 168.227 15.4714 167.289 16.5781V24H165.443V13.6387H167.289V14.957ZM180.6 24.0195C180.196 24.0977 179.757 24.1367 179.281 24.1367C178.526 24.1367 177.973 24.0033 177.621 23.7363C177.27 23.4629 177.051 23.1146 176.967 22.6914C176.882 22.2682 176.84 21.6921 176.84 20.9629V15.084H175.561V13.6387H176.84V11.0605H178.676V13.6387H180.355V15.084H178.676V21.0605C178.676 21.7702 178.764 22.2227 178.939 22.418C179.122 22.6068 179.369 22.7012 179.682 22.7012C180.001 22.7012 180.307 22.6751 180.6 22.623V24.0195ZM188.705 21.2754V18.9805H187.445C184.776 18.9805 183.441 19.7064 183.441 21.1582C183.441 21.6855 183.637 22.0924 184.027 22.3789C184.418 22.6589 184.945 22.7988 185.609 22.7988C186.215 22.7988 186.801 22.6621 187.367 22.3887C187.934 22.1152 188.38 21.7441 188.705 21.2754ZM188.705 22.9355C187.768 23.8079 186.56 24.2441 185.082 24.2441C184.053 24.2441 183.207 23.9674 182.543 23.4141C181.879 22.8542 181.547 22.1348 181.547 21.2559C181.547 18.834 183.633 17.623 187.807 17.623H188.705C188.705 16.8809 188.666 16.3438 188.588 16.0117C188.51 15.6732 188.292 15.3932 187.934 15.1719C187.576 14.9505 187.006 14.8398 186.225 14.8398C184.584 14.8398 183.738 15.4258 183.686 16.5977H181.85C181.986 14.4688 183.477 13.4043 186.322 13.4043C187.65 13.4043 188.686 13.668 189.428 14.1953C190.17 14.7227 190.541 15.7578 190.541 17.3008V24H188.705V22.9355Z" fill="#006F46"/>
<defs>
<clipPath id="clip0_671_1461">
<rect width="78" height="28" fill="white"/>
</clipPath>
</defs>
</svg>
