<svg width="17" height="16" viewBox="0 0 17 16" fill="none" xmlns="http://www.w3.org/2000/svg">
<path d="M2.25 4.00016H3.58333M3.58333 4.00016H14.25M3.58333 4.00016L3.58333 13.3335C3.58333 13.6871 3.72381 14.0263 3.97386 14.2763C4.22391 14.5264 4.56304 14.6668 4.91667 14.6668H11.5833C11.937 14.6668 12.2761 14.5264 12.5261 14.2763C12.7762 14.0263 12.9167 13.6871 12.9167 13.3335V4.00016M5.58333 4.00016V2.66683C5.58333 2.31321 5.72381 1.97407 5.97386 1.72402C6.22391 1.47397 6.56304 1.3335 6.91667 1.3335H9.58333C9.93696 1.3335 10.2761 1.47397 10.5261 1.72402C10.7762 1.97407 10.9167 2.31321 10.9167 2.66683V4.00016" stroke="#F5F5F5" stroke-width="1.6" stroke-linecap="round" stroke-linejoin="round"/>
</svg>
