<svg width="25" height="24" viewBox="0 0 25 24" fill="none" xmlns="http://www.w3.org/2000/svg">
<path d="M5.3999 19H6.8249L16.5999 9.225L15.1749 7.8L5.3999 17.575V19ZM3.3999 21V16.75L16.5999 3.575C16.7999 3.39167 17.0207 3.25 17.2624 3.15C17.5041 3.05 17.7582 3 18.0249 3C18.2916 3 18.5499 3.05 18.7999 3.15C19.0499 3.25 19.2666 3.4 19.4499 3.6L20.8249 5C21.0249 5.18333 21.1707 5.4 21.2624 5.65C21.3541 5.9 21.3999 6.15 21.3999 6.4C21.3999 6.66667 21.3541 6.92083 21.2624 7.1625C21.1707 7.40417 21.0249 7.625 20.8249 7.825L7.6499 21H3.3999ZM15.8749 8.525L15.1749 7.8L16.5999 9.225L15.8749 8.525Z" fill="#49454F"/>
</svg>
