<svg width="50" height="50" viewBox="0 0 50 50" fill="none" xmlns="http://www.w3.org/2000/svg">
<rect x="1.5" y="1.5" width="47" height="47" rx="23.5" stroke="#006F48" stroke-width="3"/>
<path d="M28.5026 17.8752C28.272 18.1088 28.1428 18.423 28.1428 18.7502C28.1428 19.0773 28.272 19.3915 28.5026 19.6252L30.5165 21.6252C30.7518 21.8542 31.0681 21.9825 31.3976 21.9825C31.727 21.9825 32.0434 21.8542 32.2786 21.6252L37.0239 16.9127C37.6568 18.3016 37.8484 19.8492 37.5732 21.3491C37.2981 22.849 36.5691 24.23 35.4836 25.308C34.3981 26.386 33.0075 27.1099 31.4972 27.3832C29.9869 27.6565 28.4286 27.4662 27.03 26.8377L18.3325 35.4752C17.8317 35.9724 17.1526 36.2518 16.4444 36.2518C15.7363 36.2518 15.0572 35.9724 14.5564 35.4752C14.0557 34.9779 13.7744 34.3034 13.7744 33.6002C13.7744 32.8969 14.0557 32.2224 14.5564 31.7252L23.2539 23.0877C22.621 21.6987 22.4294 20.1511 22.7045 18.6512C22.9797 17.1513 23.7087 15.7704 24.7942 14.6923C25.8797 13.6143 27.2703 12.8904 28.7806 12.6171C30.2909 12.3438 31.8492 12.5341 33.2478 13.1627L28.5026 17.8752Z" stroke="#006F48" stroke-width="3" stroke-linecap="round" stroke-linejoin="round"/>
</svg>
